<?xml version="1.0" standalone="no"?>
<!DOCTYPE svg PUBLIC "-//W3C//DTD SVG 20010904//EN"
 "http://www.w3.org/TR/2001/REC-SVG-20010904/DTD/svg10.dtd">
<svg version="1.0" xmlns="http://www.w3.org/2000/svg"
 width="260.000000pt" height="260.000000pt" viewBox="0 0 260.000000 260.000000"
 preserveAspectRatio="xMidYMid meet">
<metadata>
Created by potrace 1.14, written by Peter Selinger 2001-2017
</metadata>
<g transform="translate(0.000000,260.000000) scale(0.100000,-0.100000)"
fill="#000000" stroke="none">
<path d="M1130 2043 c0 -7 -8 -13 -18 -13 -10 0 -23 -5 -30 -12 -9 -9 -12 -9
-12 1 0 10 -3 11 -14 2 -8 -7 -22 -13 -32 -15 -11 -3 -32 -10 -49 -17 -16 -7
-32 -13 -35 -14 -46 -18 -70 -31 -70 -36 0 -4 -13 -12 -30 -19 -16 -7 -30 -17
-30 -22 0 -5 -8 -11 -17 -15 -26 -9 -153 -136 -153 -152 0 -8 -3 -11 -6 -8 -8
7 -74 -99 -74 -118 0 -7 -7 -18 -15 -25 -8 -7 -15 -19 -15 -26 0 -13 -12 -18
-33 -15 -4 0 -7 -4 -7 -10 0 -5 -4 -7 -10 -4 -5 3 -10 2 -10 -2 0 -5 -8 -9
-17 -10 -47 -3 -63 -8 -67 -20 -3 -7 -12 -13 -21 -13 -8 0 -15 -5 -15 -12 0
-6 -3 -8 -6 -5 -14 13 -106 -67 -159 -138 -16 -22 -34 -43 -40 -47 -5 -4 -6
-8 -1 -8 4 0 1 -11 -8 -25 -9 -14 -14 -25 -12 -25 3 0 -1 -12 -9 -27 -8 -15
-12 -30 -9 -35 3 -4 1 -8 -3 -8 -5 0 -10 -16 -11 -36 -4 -51 -6 -58 -17 -66
-7 -5 -6 -8 0 -8 6 0 11 -9 12 -20 1 -13 -2 -18 -10 -13 -9 5 -9 3 -1 -8 5 -8
16 -38 23 -67 24 -98 85 -194 164 -257 72 -58 139 -93 192 -100 6 0 9 -6 8
-12 -1 -6 46 -11 137 -12 110 -2 140 1 140 11 0 8 3 9 8 3 8 -12 55 -18 48 -6
-6 9 31 8 40 -2 4 -4 13 1 21 11 10 14 12 14 8 1 -4 -10 0 -16 9 -16 8 0 13 4
10 9 -3 4 -1 8 5 8 5 0 13 -5 16 -10 5 -8 11 -8 20 0 7 6 37 11 67 10 29 0
116 2 193 5 77 3 146 5 153 5 6 0 20 0 30 1 9 0 38 1 64 2 83 3 63 23 -26 26
-128 4 -221 8 -221 11 0 7 -47 5 -51 -2 -3 -5 -12 -3 -21 3 -11 10 -16 10 -23
0 -4 -7 -10 -9 -13 -4 -5 8 -81 14 -214 16 -33 1 -49 5 -45 12 3 5 -2 4 -11
-4 -13 -10 -17 -10 -17 -1 0 9 -3 10 -13 1 -8 -6 -17 -8 -21 -4 -4 4 -55 9
-114 10 -147 4 -176 9 -270 55 -34 16 -62 35 -62 41 0 6 -3 8 -6 5 -7 -8 -93
82 -100 104 -3 10 -10 18 -15 18 -5 0 -9 6 -7 13 1 6 -4 23 -12 37 -7 14 -13
26 -12 28 1 1 2 3 1 5 -15 48 -14 140 2 169 7 13 10 23 8 23 -5 1 33 86 46
103 31 39 115 117 115 106 0 -3 12 3 27 13 70 48 207 54 284 13 28 -15 29 0 4
50 -22 44 -32 120 -16 120 4 0 7 8 8 18 1 9 7 31 14 47 7 17 12 33 11 38 -1 4
3 7 9 7 5 0 8 4 5 9 -3 5 1 14 9 21 8 7 15 19 15 27 0 8 5 11 10 8 6 -3 10 -1
10 4 0 12 70 81 81 81 4 0 15 8 25 17 9 10 24 18 33 20 8 1 17 6 19 12 2 5 10
7 18 4 8 -3 14 0 14 7 0 7 6 10 14 7 7 -3 18 -1 23 4 5 5 18 11 29 14 10 2 34
8 52 14 17 5 32 7 32 4 0 -3 6 -1 13 6 10 8 17 7 25 -1 9 -9 12 -9 12 -1 0 7
8 12 18 12 165 3 277 -1 277 -9 0 -1 16 -4 35 -7 41 -5 162 -52 171 -65 3 -6
8 -8 11 -6 9 6 97 -55 92 -64 -3 -4 1 -8 8 -8 25 0 148 -156 148 -187 0 -7 4
-13 8 -13 5 0 15 -19 22 -42 17 -54 27 -67 48 -63 9 1 23 -2 30 -8 7 -6 12 -6
12 0 0 5 31 9 70 8 44 -1 70 2 70 9 0 6 4 5 9 -3 6 -10 10 -10 16 -1 6 9 10 9
17 -1 5 -8 11 -10 14 -4 2 6 39 10 83 9 75 -1 79 0 68 17 -7 11 -13 15 -15 11
-1 -5 -19 -6 -40 -3 -20 4 -55 6 -77 6 -22 0 -43 5 -47 10 -5 6 -8 5 -8 -2 0
-9 -7 -10 -22 -5 -13 5 -39 7 -58 6 -19 0 -40 3 -46 7 -6 5 -29 46 -52 91 -23
46 -55 98 -70 117 -76 94 -192 190 -272 226 -25 11 -47 22 -50 25 -12 12 -81
31 -91 24 -7 -4 -9 -3 -5 4 4 7 -10 13 -39 17 -25 4 -43 10 -40 14 2 4 -2 8
-10 8 -8 0 -11 -5 -8 -11 3 -6 0 -5 -8 2 -17 16 -215 17 -225 1 -4 -8 -9 -7
-15 2 -6 10 -9 11 -9 2z"/>
<path d="M2402 1501 c-7 -4 -25 -6 -40 -3 -25 5 -26 4 -13 -12 11 -13 16 -14
22 -4 7 10 9 10 9 -2 0 -13 1 -13 10 0 9 13 11 13 20 0 7 -12 9 -10 7 8 0 12
-1 22 -2 22 0 0 -6 -4 -13 -9z"/>
<path d="M1496 595 c-3 -8 -1 -15 4 -15 6 0 10 7 10 15 0 8 -2 15 -4 15 -2 0
-6 -7 -10 -15z"/>
<path d="M1523 594 c0 -9 4 -11 12 -4 7 5 14 9 16 7 2 -1 3 0 1 2 -7 11 -29 7
-29 -5z"/>
</g>
</svg>
